<?xml version="1.0" standalone="no"?>
<!DOCTYPE svg PUBLIC "-//W3C//DTD SVG 20010904//EN"
 "http://www.w3.org/TR/2001/REC-SVG-20010904/DTD/svg10.dtd">
<svg version="1.0" xmlns="http://www.w3.org/2000/svg"
 width="1024.000000pt" height="1024.000000pt" viewBox="0 0 1024.000000 1024.000000"
 preserveAspectRatio="xMidYMid meet">

<g transform="translate(0.000000,1024.000000) scale(0.100000,-0.100000)"
fill="#000000" stroke="none">
<path d="M5028 8160 c-376 -44 -589 -96 -870 -211 -669 -275 -1216 -765 -1536
-1379 -186 -355 -297 -694 -350 -1065 l-17 -120 -160 -2 -160 -1 -3 -85 -3
-84 98 -6 c54 -4 619 -7 1256 -7 l1157 0 0 90 0 90 -130 0 -130 0 0 58 c0 73
-31 139 -79 166 -32 19 -51 20 -278 17 l-243 -2 0 458 c1 387 3 461 15 477 37
48 -3 126 -63 126 -36 0 -82 -43 -82 -77 0 -15 12 -37 30 -53 l30 -28 0 -451
0 -451 -110 0 -110 0 0 254 c0 245 1 255 20 261 34 11 64 64 64 114 0 139
-176 183 -239 61 -31 -59 -8 -137 50 -171 l35 -21 0 -284 0 -284 418 0 419 0
21 -23 c18 -19 22 -35 22 -85 l0 -62 -550 0 -550 0 0 194 0 194 35 35 c45 45
47 86 6 128 -63 63 -161 23 -161 -66 0 -31 6 -47 25 -65 l25 -23 0 -199 0
-198 -127 0 -126 0 7 99 c17 272 131 633 291 926 326 599 883 1049 1555 1259
253 79 464 107 790 105 241 -1 324 -7 490 -35 507 -85 1052 -362 1411 -717
278 -274 494 -616 634 -1003 60 -164 125 -473 125 -593 l0 -41 -130 0 -130 0
0 195 0 196 28 24 c22 19 27 31 27 70 0 39 -5 51 -28 71 -40 34 -90 32 -128
-5 -17 -18 -29 -40 -29 -56 0 -32 24 -81 45 -88 13 -6 15 -36 15 -207 l0 -200
-545 0 -545 0 0 63 c0 53 4 67 23 85 23 22 26 22 435 22 l412 0 0 285 0 284
29 16 c37 19 68 57 76 95 9 42 -25 114 -64 134 -144 75 -264 -121 -136 -222
l25 -20 0 -251 0 -251 -110 0 -110 0 0 453 0 452 30 17 c40 23 42 77 5 113
-33 33 -70 32 -106 -4 -32 -33 -36 -57 -14 -87 12 -16 14 -91 15 -482 l0 -463
-233 2 c-244 2 -256 0 -305 -45 -38 -34 -52 -71 -52 -136 l0 -60 -126 0 c-111
0 -125 -2 -120 -16 3 -9 6 -47 6 -85 l0 -69 1173 1 1172 0 30 42 c17 23 47 53
68 66 20 14 37 33 37 43 0 17 -12 18 -165 18 l-165 0 0 28 c0 16 -7 75 -15
132 -70 462 -244 911 -506 1300 -122 181 -195 270 -362 438 -306 309 -638 524
-1060 686 -162 62 -348 118 -472 140 -96 18 -235 39 -340 52 -128 15 -490 17
-607 4z"/>
<path d="M5075 7496 c-17 -7 -43 -28 -58 -46 -23 -27 -48 -39 -155 -72 -114
-35 -134 -38 -197 -33 -89 8 -127 -13 -157 -83 -13 -31 -37 -60 -68 -84 -26
-21 -88 -73 -137 -117 -69 -61 -99 -80 -130 -85 -120 -21 -193 -144 -158 -264
17 -55 11 -106 -25 -204 -25 -72 -25 -78 5 -141 37 -79 55 -162 53 -245 -1
-75 -1 -76 36 -109 l37 -34 92 3 c60 2 118 -3 167 -14 41 -9 93 -19 114 -22
66 -10 125 -42 137 -73 15 -40 37 -61 78 -74 20 -6 71 -29 115 -50 62 -31 84
-48 106 -82 32 -52 80 -77 145 -77 57 0 88 16 141 73 36 39 50 46 106 56 72
14 103 9 218 -36 85 -33 130 -67 130 -98 0 -54 104 -128 154 -109 16 6 63 -14
178 -77 l68 -37 15 31 c8 18 35 57 60 87 24 30 57 72 72 92 20 26 45 43 84 58
70 25 132 89 149 152 7 23 36 95 66 159 30 64 54 120 54 126 0 5 18 25 41 43
49 39 69 82 69 148 0 48 -2 52 -64 137 -8 11 -25 55 -37 98 -20 66 -21 82 -11
110 33 91 -6 184 -90 216 -32 12 -112 109 -137 166 -20 45 -37 61 -92 90 -21
11 -78 50 -127 88 -80 60 -90 72 -96 107 -8 51 -60 106 -109 115 -21 4 -57 2
-82 -4 -35 -9 -52 -8 -82 3 -21 8 -70 24 -109 35 -39 11 -77 28 -84 37 -34 40
-109 55 -165 34 -44 -17 -165 -14 -207 4 -45 19 -73 20 -113 2z m93 -81 c27
-23 38 -25 122 -25 77 0 96 3 117 20 26 20 59 26 79 12 6 -4 18 -21 27 -37 14
-27 25 -33 94 -49 43 -10 104 -28 135 -41 l57 -22 22 23 c57 61 158 -4 136
-86 -4 -16 18 -39 113 -115 69 -55 124 -93 132 -90 26 10 68 -33 68 -69 0 -20
8 -40 20 -51 10 -9 36 -42 56 -71 33 -48 41 -54 71 -54 25 0 43 -8 65 -30 27
-27 30 -36 25 -73 -4 -25 -14 -48 -27 -59 l-21 -17 32 -103 c28 -91 37 -108
75 -144 37 -34 44 -47 44 -78 0 -20 -7 -50 -15 -66 -15 -28 -60 -60 -87 -60
-7 -1 -45 -68 -85 -150 -65 -136 -71 -152 -60 -179 14 -38 -2 -76 -39 -93 -21
-10 -31 -9 -59 6 l-34 19 -172 -54 c-148 -46 -177 -58 -202 -86 -55 -61 -111
-37 -105 44 3 34 0 38 -52 68 -29 18 -61 46 -70 62 -8 16 -34 46 -57 67 l-43
38 -107 -32 c-253 -74 -241 -69 -248 -101 -9 -40 -58 -79 -102 -79 -45 0 -93
45 -93 89 0 28 -7 33 -96 80 -77 39 -103 48 -129 44 -27 -4 -36 -1 -49 20 -32
47 15 103 64 77 27 -15 37 -11 228 83 117 59 162 86 162 98 0 10 -4 20 -9 23
-9 6 -209 -30 -269 -48 -9 -3 -30 -8 -47 -10 -77 -14 -84 -17 -90 -45 -7 -33
-38 -65 -79 -81 -39 -14 -89 3 -116 40 -17 24 -29 29 -82 35 -35 4 -70 8 -78
10 -69 12 -130 15 -130 7 0 -12 -61 -42 -84 -42 -28 0 -66 46 -66 80 0 36 46
90 77 90 11 0 30 21 50 55 27 47 29 55 16 66 -30 26 -55 90 -48 127 13 69 52
102 121 102 77 0 131 -65 121 -144 -6 -40 -4 -42 76 -123 54 -55 89 -83 104
-83 27 0 60 48 96 137 l23 58 -22 38 c-29 53 -156 145 -192 140 -36 -6 -62 16
-71 56 -6 31 -13 36 -79 62 l-73 27 -15 -23 c-19 -29 -72 -55 -113 -55 -29 0
-31 -3 -55 -81 -23 -75 -24 -83 -9 -105 13 -20 13 -29 3 -54 -10 -25 -8 -40
14 -107 29 -87 30 -93 17 -93 -6 0 -22 39 -37 88 -15 48 -35 93 -46 100 -22
16 -23 49 -3 72 8 8 27 56 43 105 l30 90 -28 32 c-40 45 -46 84 -21 137 25 50
53 66 120 66 45 0 51 4 132 76 46 42 117 104 157 137 66 55 72 63 72 98 0 62
53 88 103 49 l25 -20 178 53 c176 53 177 53 191 89 12 30 40 55 65 57 3 1 20
-10 36 -24z"/>
<path d="M5174 7343 c-9 -23 -9 -28 0 -83 23 -146 41 -172 79 -123 12 16 44
55 72 88 27 33 55 67 62 76 7 8 10 25 6 37 -5 21 -11 22 -108 22 -88 0 -104
-2 -111 -17z"/>
<path d="M5505 7328 c-3 -7 28 -82 70 -165 61 -126 79 -154 100 -159 50 -12
80 -78 56 -123 -10 -19 1 -41 52 -101 26 -30 29 -31 57 -20 l30 12 0 185 0
184 -35 33 c-19 19 -35 42 -35 53 0 24 -36 41 -170 79 -52 15 -101 29 -107 31
-7 3 -15 -1 -18 -9z"/>
<path d="M4970 7299 c-47 -16 -127 -41 -178 -56 -109 -32 -124 -47 -96 -99 15
-27 22 -32 39 -26 33 12 112 6 138 -11 23 -15 25 -14 51 20 58 72 146 191 146
197 0 9 -8 7 -100 -25z"/>
<path d="M5062 7266 c-17 -24 -58 -76 -90 -116 -58 -70 -59 -72 -47 -106 7
-22 9 -53 5 -82 -7 -41 -5 -51 17 -76 17 -21 34 -30 56 -30 26 -1 39 9 87 68
52 64 56 72 46 97 -12 34 5 79 35 86 12 4 18 11 15 22 -3 9 -8 34 -11 56 -20
130 -58 158 -113 81z"/>
<path d="M5339 7198 c-81 -97 -85 -104 -75 -131 9 -22 7 -34 -7 -58 -16 -29
-16 -32 2 -67 10 -20 42 -96 71 -169 69 -173 69 -173 178 -28 56 75 80 115 75
125 -13 27 -7 89 10 108 9 10 17 23 17 29 0 6 -30 75 -67 152 -85 181 -84 181
-204 39z"/>
<path d="M5921 7161 c-10 -7 -13 -51 -15 -199 -1 -171 1 -191 16 -201 10 -6
20 -11 22 -11 2 0 48 37 101 83 70 60 101 94 110 120 l12 36 -113 91 c-62 49
-115 90 -116 90 -2 0 -9 -4 -17 -9z"/>
<path d="M4465 7058 c-164 -136 -197 -169 -184 -184 7 -9 27 -5 82 19 40 16
121 47 181 68 l110 37 23 53 24 53 -23 22 c-13 12 -39 24 -58 27 -33 5 -44 -2
-155 -95z"/>
<path d="M4569 6941 c-271 -97 -261 -93 -255 -115 3 -12 6 -33 6 -47 0 -24 8
-29 76 -54 62 -23 80 -26 95 -17 10 7 29 12 41 13 16 0 41 22 78 66 89 105 85
98 65 143 -10 22 -21 40 -24 39 -3 -1 -40 -13 -82 -28z"/>
<path d="M5106 6900 c-69 -85 -69 -108 3 -145 26 -13 89 -49 139 -79 81 -50
112 -64 112 -52 0 2 -17 41 -38 87 -22 46 -54 123 -73 171 -31 80 -36 88 -60
88 -21 0 -39 -15 -83 -70z"/>
<path d="M4865 6869 c-30 -20 -98 -22 -135 -6 -11 5 -37 -17 -88 -72 -66 -73
-71 -82 -61 -104 l11 -24 131 42 c73 23 147 46 166 51 25 7 37 18 48 46 13 34
13 39 -4 62 -21 30 -29 31 -68 5z"/>
<path d="M6061 6807 c-50 -43 -91 -85 -91 -93 0 -10 13 -14 44 -14 36 0 47 5
60 25 11 17 26 25 44 25 16 0 33 5 39 11 6 6 23 9 39 7 22 -2 31 -10 38 -33
13 -40 10 -37 56 -45 39 -7 41 -6 56 26 l16 34 -50 67 -49 66 -56 2 -55 1 -91
-79z"/>
<path d="M5531 6729 c-55 -73 -80 -114 -73 -121 6 -6 31 -3 73 10 35 11 102
28 149 37 129 27 134 36 64 126 -42 55 -48 59 -87 59 -42 0 -43 0 -126 -111z"/>
<path d="M5052 6737 c-9 -10 -5 -27 14 -68 14 -30 53 -117 87 -194 53 -118 66
-139 82 -137 11 2 38 5 61 5 l41 2 15 69 c16 66 15 70 -3 89 -18 19 -23 41
-20 77 1 9 -38 38 -101 75 -57 32 -117 67 -134 77 -26 15 -33 16 -42 5z"/>
<path d="M4915 6735 c-5 -2 -75 -22 -155 -46 -97 -28 -151 -49 -162 -63 -16
-20 -14 -22 49 -68 l66 -48 24 22 c49 46 132 23 134 -36 0 -29 294 -225 311
-208 14 14 17 6 -87 241 -74 167 -82 180 -106 181 -15 0 -32 7 -39 15 -13 15
-17 16 -35 10z"/>
<path d="M5988 6673 c-18 -4 -44 -63 -27 -63 5 0 37 -25 70 -56 52 -48 63 -54
71 -40 24 42 109 59 162 31 15 -8 29 -15 31 -15 1 0 14 18 29 40 23 34 25 44
15 63 -7 12 -17 25 -23 29 -17 12 -84 9 -88 -3 -6 -17 -128 -22 -147 -5 -17
15 -65 25 -93 19z"/>
<path d="M5640 6614 c-167 -38 -164 -36 -172 -75 -9 -42 7 -58 161 -173 87
-64 109 -76 130 -71 14 4 29 9 32 13 3 4 16 66 29 139 l22 131 -23 31 c-27 37
-37 38 -179 5z"/>
<path d="M5894 6583 c-18 -3 -23 -17 -37 -96 -32 -185 -32 -181 -2 -201 l27
-18 85 58 c100 69 100 69 105 114 3 32 -3 40 -59 93 -60 55 -72 59 -119 50z"/>
<path d="M6333 6557 l-31 -32 19 -30 c25 -40 25 -111 -1 -152 -27 -45 -73 -66
-130 -61 l-47 5 -43 -87 -43 -87 24 -32 c12 -17 30 -31 38 -31 9 0 72 31 141
69 l125 69 -3 45 c-2 28 3 57 12 76 16 30 61 61 90 61 12 0 14 5 6 25 -5 14
-7 25 -4 25 4 0 2 6 -3 13 -5 6 -17 37 -27 67 -21 71 -25 76 -62 83 -26 5 -36
1 -61 -26z"/>
<path d="M5420 6480 c-21 -5 -27 -16 -41 -77 l-16 -72 30 -28 c16 -15 33 -39
38 -51 10 -26 7 -26 150 -6 34 4 48 2 58 -10 17 -20 61 -21 63 -1 0 8 1 19 2
24 1 5 -47 45 -105 89 -58 44 -116 93 -130 109 -19 22 -30 28 -49 23z"/>
<path d="M4831 6420 c-13 -11 -29 -20 -36 -20 -8 0 -35 -43 -60 -95 l-47 -95
34 -40 c18 -22 37 -40 42 -40 5 0 59 11 120 24 61 14 146 32 189 41 42 10 78
21 79 26 0 5 1 13 2 19 1 10 -273 200 -289 200 -5 -1 -21 -10 -34 -20z"/>
<path d="M5988 6305 c-78 -59 -88 -70 -88 -98 0 -18 -9 -47 -20 -65 l-20 -33
22 -29 21 -29 29 24 c15 13 44 29 63 36 30 11 42 26 80 100 25 48 45 91 45 96
0 4 -10 20 -23 36 l-22 27 -87 -65z"/>
<path d="M4385 6329 c-16 -10 -46 -19 -65 -19 -33 0 -37 -4 -66 -60 -27 -52
-29 -61 -17 -72 8 -7 19 -22 24 -34 6 -18 19 -24 56 -29 26 -3 82 -12 123 -19
41 -7 78 -12 83 -9 4 2 7 15 7 28 0 13 11 37 24 53 l25 29 -77 76 c-43 42 -80
77 -82 76 -3 0 -18 -9 -35 -20z"/>
<path d="M5430 6165 c-24 -72 -114 -120 -181 -96 -18 6 -33 11 -34 11 -1 0
-24 -52 -50 -115 l-48 -116 27 -28 27 -28 107 32 c59 18 140 42 180 54 48 15
72 27 72 37 0 51 52 94 113 94 28 0 39 8 70 50 l38 51 -25 30 c-15 17 -26 34
-26 39 0 14 -61 18 -67 3 -7 -18 -71 -17 -89 2 -9 9 -34 15 -59 15 -41 0 -44
-2 -55 -35z"/>
<path d="M6265 6089 c-153 -85 -165 -93 -165 -113 0 -7 35 -42 78 -78 68 -58
81 -65 110 -61 28 5 38 15 71 72 21 36 55 100 75 141 35 70 36 76 19 88 -42
32 -46 30 -188 -49z"/>
<path d="M4985 6019 c-124 -61 -180 -94 -180 -105 0 -11 31 -32 87 -61 l88
-45 31 26 c17 14 41 26 54 26 20 0 30 16 74 119 28 66 51 122 51 125 0 14 -35
-1 -205 -85z"/>
<path d="M5741 6051 l-41 -49 21 -37 c16 -26 20 -45 16 -72 -6 -37 -51 -93
-74 -93 -24 0 -13 -18 39 -65 40 -36 55 -44 61 -34 4 8 39 67 77 131 69 116
79 141 60 153 -5 3 -10 14 -10 23 0 9 -12 33 -26 54 -39 55 -70 52 -123 -11z"/>
<path d="M6050 5924 c-22 -13 -65 -14 -109 -3 -13 4 -83 -99 -137 -204 -23
-44 -23 -48 -7 -53 10 -3 25 -9 33 -13 9 -5 89 14 205 48 189 56 190 57 193
86 2 26 -6 38 -68 90 -39 33 -74 61 -78 61 -4 1 -18 -5 -32 -12z"/>
<path d="M3753 7160 c-63 -38 -66 -125 -6 -170 l29 -21 3 -493 3 -494 -25 -16
c-51 -34 -61 -98 -22 -144 32 -38 72 -48 118 -28 77 32 87 111 22 163 l-35 28
0 488 0 488 40 38 c33 32 40 44 40 77 -1 86 -90 131 -167 84z m86 -64 c18 -22
-4 -58 -32 -54 -37 5 -36 68 1 68 11 0 25 -6 31 -14z m1 -1190 c0 -2 3 -11 6
-19 8 -23 -28 -40 -50 -24 -23 17 -10 47 20 47 13 0 24 -2 24 -4z"/>
<path d="M6795 7168 c-33 -18 -55 -51 -55 -86 0 -41 24 -89 48 -96 27 -9 32
-105 32 -597 l0 -408 -28 -15 c-56 -29 -67 -99 -24 -146 65 -72 182 -27 182
71 0 10 -16 36 -35 58 l-35 38 0 491 0 490 26 17 c62 41 63 138 1 175 -35 22
-81 25 -112 8z m79 -80 c8 -14 7 -21 -6 -34 -30 -30 -75 9 -48 42 16 18 39 15
54 -8z m-1 -1190 c6 -18 -11 -48 -27 -48 -20 0 -39 27 -32 45 7 18 52 20 59 3z"/>
<path d="M1986 4963 c-8 -27 -43 -138 -76 -248 -34 -110 -115 -370 -181 -578
-67 -208 -119 -379 -117 -380 1 -1 60 -1 129 1 l126 4 19 61 20 62 246 3 245
2 19 -65 20 -65 127 -4 c82 -3 127 -1 127 6 0 5 -27 101 -61 212 -136 450
-210 698 -249 831 -23 77 -46 155 -51 173 l-11 32 -158 0 -158 0 -16 -47z
m187 -235 c11 -47 148 -584 153 -600 5 -17 -8 -18 -170 -18 -131 0 -176 3
-176 12 0 22 175 628 181 628 4 0 9 -10 12 -22z"/>
<path d="M2862 4383 l3 -628 120 0 120 0 3 628 2 627 -125 0 -125 0 2 -627z"/>
<path d="M3916 4995 c-60 -23 -102 -59 -127 -112 -23 -46 -24 -58 -24 -248 0
-221 6 -255 57 -305 63 -63 69 -65 353 -70 l260 -5 3 -111 c4 -154 11 -149
-215 -149 -172 0 -175 0 -194 24 -12 15 -19 39 -19 67 l0 44 -131 0 -132 0 6
-88 c19 -258 94 -299 526 -290 182 4 213 7 263 27 121 47 148 114 148 365 0
187 -7 229 -48 277 -54 65 -89 73 -360 79 -290 6 -272 -3 -272 135 0 140 -8
135 216 135 l185 0 15 -35 c7 -19 14 -50 14 -70 l0 -35 125 0 125 0 0 78 c0
139 -42 226 -134 275 -39 21 -54 22 -321 24 -226 2 -288 -1 -319 -12z"/>
<path d="M5037 4996 c-66 -24 -106 -58 -135 -116 l-27 -55 0 -445 0 -445 28
-58 c54 -109 151 -133 497 -125 197 5 229 14 293 76 51 50 67 108 67 249 l0
113 -125 0 -125 0 0 -75 c0 -67 -3 -79 -25 -100 -23 -24 -29 -25 -164 -25 -85
0 -150 5 -166 12 -42 19 -46 57 -43 405 4 396 -10 366 165 369 151 3 201 -3
213 -26 12 -23 18 -55 19 -102 l1 -38 126 0 127 0 -5 113 c-3 91 -8 122 -27
160 -27 56 -72 93 -137 113 -65 19 -502 19 -557 0z"/>
<path d="M5950 4385 l0 -625 390 0 391 0 -3 123 -3 122 -267 3 -268 2 0 125 0
125 250 0 250 0 0 120 0 120 -250 0 -250 0 0 130 0 130 265 0 265 0 0 125 0
125 -385 0 -385 0 0 -625z"/>
<path d="M6920 4385 l0 -625 120 0 120 0 2 508 3 507 206 -405 c114 -223 231
-450 262 -505 l55 -100 171 -3 171 -2 0 625 0 625 -120 0 -120 0 -1 -492 c0
-271 -3 -486 -6 -478 -30 81 -380 753 -474 912 l-34 58 -177 0 -178 0 0 -625z"/>
<path d="M8230 4385 l0 -625 390 -2 390 -3 0 128 0 127 -270 0 -270 0 0 125 0
125 260 0 260 0 0 120 0 120 -260 0 -260 0 0 133 0 133 273 0 272 -1 3 123 3
122 -396 0 -395 0 0 -625z"/>
<path d="M1928 3481 c-2 -51 -1 -95 1 -97 2 -2 188 -4 413 -4 l408 0 16 -32
15 -33 117 0 c111 0 121 -2 182 -31 36 -18 74 -39 85 -49 11 -9 15 -14 9 -11
-8 4 -10 -13 -6 -59 4 -59 2 -69 -23 -107 -41 -62 -98 -120 -212 -214 -95 -79
-103 -88 -118 -141 -16 -55 -40 -101 -60 -116 -5 -4 -20 -5 -33 -2 -18 4 -25
0 -33 -22 -6 -16 -8 -45 -6 -65 3 -21 1 -38 -4 -38 -5 0 -9 5 -9 12 0 6 -3 8
-6 5 -4 -4 1 -18 10 -31 20 -32 20 -33 -4 -39 -14 -3 -20 -14 -20 -32 0 -28
-52 -88 -87 -99 -10 -3 -25 -19 -35 -35 -14 -25 -24 -30 -72 -36 -50 -7 -56
-10 -56 -30 0 -15 -8 -26 -19 -30 -11 -3 -38 -24 -60 -47 -44 -43 -100 -78
-127 -78 -8 0 -30 -16 -48 -35 -19 -19 -42 -35 -53 -35 -12 0 -26 -7 -33 -15
-10 -12 -10 -15 4 -15 9 0 16 -5 16 -11 0 -5 4 -8 8 -5 5 3 17 -5 27 -16 16
-20 16 -22 1 -33 -8 -7 -13 -15 -9 -18 3 -4 -5 -8 -18 -8 -16 -1 -18 -3 -7 -6
14 -3 11 -10 -17 -35 -38 -33 -45 -58 -17 -58 14 -1 12 -5 -9 -23 -14 -13 -24
-28 -21 -35 2 -7 -3 -15 -12 -18 -8 -3 -12 -12 -10 -19 3 -7 -4 -19 -16 -25
-15 -8 -19 -17 -15 -31 4 -12 1 -21 -9 -25 -9 -3 -13 -10 -10 -15 3 -5 0 -9
-6 -9 -7 0 -10 -7 -6 -15 3 -8 -4 -21 -17 -30 -12 -8 -16 -15 -9 -15 18 0 10
-23 -13 -37 -14 -9 -16 -12 -5 -13 10 0 7 -7 -10 -20 -22 -18 -23 -20 -5 -20
15 0 16 -3 7 -12 -7 -7 -12 -19 -12 -28 0 -9 -12 -22 -26 -28 -14 -7 -23 -16
-20 -21 3 -4 -3 -17 -14 -29 -18 -19 -18 -21 -2 -24 13 -3 10 -8 -13 -20 -31
-16 -48 -62 -19 -51 8 3 14 0 14 -5 0 -6 -9 -14 -21 -17 -11 -4 -24 -18 -29
-31 -5 -13 -14 -24 -20 -24 -17 0 -11 -18 8 -23 11 -2 6 -7 -18 -14 -19 -6
-28 -12 -20 -12 13 -1 13 -2 0 -11 -12 -7 -8 -11 19 -16 l34 -7 -29 -16 c-17
-9 -29 -20 -29 -26 1 -21 18 -37 36 -32 27 7 24 -12 -3 -23 -23 -9 -23 -9 -2
-9 12 -1 27 -8 34 -16 10 -12 7 -15 -14 -21 -20 -5 -24 -9 -16 -19 8 -9 7 -15
-2 -19 -7 -3 -2 -4 10 -2 27 5 23 -2 -10 -18 -14 -7 -24 -22 -26 -38 -2 -16
-11 -30 -22 -33 -11 -3 -17 -12 -14 -20 4 -8 -5 -15 -25 -20 -16 -3 -35 -13
-42 -21 -6 -8 -20 -12 -30 -9 -9 3 -20 1 -24 -5 -3 -5 2 -10 12 -11 11 0 13
-3 5 -6 -6 -2 -9 -10 -5 -16 5 -9 3 -9 -8 0 -9 8 -20 9 -29 3 -12 -8 -11 -10
5 -10 16 0 17 -2 5 -10 -9 -6 -17 -5 -21 2 -4 6 -12 7 -18 4 -6 -4 -8 -12 -5
-18 4 -7 2 -8 -4 -4 -6 3 -16 -3 -22 -15 -8 -14 -18 -19 -32 -16 -14 4 -18 1
-14 -8 2 -7 -2 -16 -10 -19 -10 -4 -12 -2 -8 6 4 7 3 8 -4 4 -7 -4 -12 -13
-12 -21 0 -20 -90 -90 -112 -87 -10 2 -18 -1 -18 -7 0 -5 -13 -22 -30 -38 -16
-15 -30 -33 -30 -40 0 -7 -8 -17 -18 -22 -9 -5 -23 -31 -31 -58 -8 -26 -24
-71 -37 -99 -13 -28 -24 -58 -24 -66 0 -8 -7 -23 -15 -34 -8 -10 -15 -27 -15
-36 0 -10 -4 -18 -10 -18 -5 0 -10 -4 -10 -10 0 -7 197 -10 571 -10 l571 0 30
25 c16 14 27 25 24 25 -4 0 2 12 11 27 10 15 12 24 6 20 -9 -5 -13 -2 -13 8 0
9 4 14 8 11 4 -2 8 10 9 27 1 18 4 57 7 87 4 30 7 62 8 70 0 8 6 18 12 23 7 5
5 12 -7 21 -15 12 -15 15 -2 26 20 16 20 54 0 47 -11 -5 -10 1 4 26 10 18 23
61 30 97 21 115 22 120 32 115 5 -4 6 1 3 10 -4 8 -1 22 6 30 7 8 9 15 5 15
-5 0 0 9 9 19 10 11 15 24 12 30 -4 5 -2 12 4 16 6 4 7 11 4 17 -4 6 -2 13 3
17 14 9 44 91 38 102 -4 5 -1 9 4 9 6 0 11 8 11 19 0 10 7 31 14 47 8 15 13
31 10 36 -3 4 0 8 5 8 6 0 11 5 11 11 0 15 31 81 46 99 8 9 14 30 16 48 1 21
10 38 26 48 13 9 21 18 18 21 -3 3 3 18 13 32 20 30 51 95 51 108 0 4 9 14 20
21 11 7 20 19 20 27 0 8 6 15 13 15 8 0 20 11 27 25 7 14 18 25 24 25 6 0 4 5
-4 10 -12 8 -11 10 6 10 11 0 31 11 44 25 13 14 28 25 35 25 6 0 11 9 11 20 0
11 -6 20 -13 20 -7 0 -13 4 -13 10 0 5 15 8 33 6 17 -2 38 -4 44 -5 7 -1 -7
-28 -33 -63 -35 -48 -42 -63 -31 -69 13 -8 75 -11 412 -24 77 -3 195 -10 262
-16 258 -22 344 3 456 131 35 40 57 119 57 202 0 110 -21 168 -85 232 -63 64
-154 98 -345 130 -45 7 -114 27 -221 62 l-106 36 20 69 c19 63 24 71 66 96 25
14 83 64 129 110 46 45 86 83 88 83 2 0 45 -25 96 -56 359 -218 741 -365 1113
-428 94 -16 121 -19 294 -36 134 -13 443 -13 551 0 47 6 108 13 135 16 28 3
111 17 185 30 597 109 1174 406 1572 811 130 131 223 240 306 356 l63 87 435
0 c461 0 454 -1 419 46 -8 10 -15 16 -15 12 0 -17 -53 23 -85 66 l-36 46
-2462 0 c-1354 0 -2850 3 -3324 7 l-861 6 -4 -92z m2752 -196 l0 -105 -210 0
-210 0 -34 38 c-30 32 -40 37 -78 37 -55 0 -95 -25 -115 -73 -20 -47 -5 -100
38 -136 53 -45 142 -28 174 34 l16 30 244 0 245 0 0 140 0 140 75 0 75 0 0
-293 0 -294 -26 -13 c-29 -16 -54 -58 -54 -90 0 -40 31 -88 67 -105 76 -36
153 15 153 102 0 39 -5 50 -35 77 l-35 32 0 292 0 292 145 0 145 0 0 -188 0
-188 -30 -17 c-38 -23 -51 -48 -52 -97 0 -44 20 -81 57 -106 25 -16 25 -17 25
-174 0 -117 -3 -159 -12 -162 -18 -6 -218 9 -303 23 -69 11 -232 45 -269 56
-17 5 -18 15 -14 141 4 130 6 136 30 156 32 27 40 50 27 83 -22 58 -79 70
-123 26 -24 -24 -27 -32 -21 -68 8 -49 18 -315 11 -315 -2 0 -67 21 -143 46
-262 87 -545 242 -772 424 -110 87 -274 245 -330 318 l-33 42 686 0 686 0 0
-105z m938 -183 l-3 -288 -37 -37 c-30 -29 -38 -46 -38 -73 0 -68 51 -124 112
-124 33 0 87 36 98 66 19 49 12 84 -25 121 l-35 35 0 294 0 295 78 -3 77 -3 0
-138 0 -137 282 0 c271 0 282 -1 288 -20 3 -10 20 -31 36 -45 60 -50 157 -22
180 54 15 49 6 86 -30 122 -53 53 -113 50 -167 -7 l-33 -34 -240 0 -241 0 0
105 0 105 716 0 716 0 -30 -37 c-38 -47 -238 -243 -313 -306 -157 -131 -447
-299 -682 -393 -101 -41 -295 -104 -319 -104 -8 0 -6 168 4 334 2 31 -3 43
-26 62 -36 32 -61 30 -97 -5 -38 -39 -37 -66 6 -105 l35 -32 0 -137 c0 -121
-2 -136 -17 -141 -100 -28 -359 -64 -493 -68 l-85 -3 -3 160 -3 159 32 25 c70
55 72 152 3 193 l-34 20 0 189 0 189 146 0 145 0 -3 -288z m-2700 -1380 c-2
-22 3 -32 14 -26 7 5 2 -5 -11 -21 -12 -17 -31 -31 -42 -31 -22 -1 -34 12 -19
21 5 3 10 15 10 26 0 16 5 19 23 14 12 -3 18 -3 12 2 -16 13 -16 33 0 27 8 -3
14 -9 13 -12z m-75 -57 c-3 -9 -8 -14 -10 -11 -3 3 -2 9 2 15 9 16 15 13 8 -4z
m-86 -117 c-3 -8 -6 -5 -6 6 -1 11 2 17 5 13 3 -3 4 -12 1 -19z m-1357 -1031
c0 -2 -10 -12 -22 -23 l-23 -19 19 23 c18 21 26 27 26 19z m830 -321 c0 -3 -4
-8 -10 -11 -5 -3 -10 -1 -10 4 0 6 5 11 10 11 6 0 10 -2 10 -4z"/>
<path d="M3714 3270 c-34 -13 -64 -59 -64 -97 0 -50 54 -103 105 -103 51 0
105 53 105 102 0 73 -78 126 -146 98z"/>
<path d="M4332 2965 c-56 -24 -70 -89 -27 -129 20 -18 25 -33 25 -68 0 -41 3
-46 25 -50 30 -6 40 6 37 47 -2 22 7 43 28 70 36 46 37 65 5 103 -31 37 -53
43 -93 27z"/>
<path d="M6824 3246 c-49 -49 -45 -114 10 -158 46 -38 134 -11 157 49 15 40
-6 100 -44 123 -48 30 -83 26 -123 -14z"/>
<path d="M6221 2953 c-43 -40 -48 -73 -17 -110 21 -24 26 -42 26 -82 l0 -51
35 0 35 0 0 54 c0 38 4 56 14 59 8 3 22 20 31 36 14 27 14 35 1 66 -14 33 -47
55 -81 55 -8 0 -28 -12 -44 -27z"/>
<path d="M2881 1674 c0 -11 3 -14 6 -6 3 7 2 16 -1 19 -3 4 -6 -2 -5 -13z"/>
<path d="M2479 3143 c-13 -16 -12 -17 4 -4 16 13 21 21 13 21 -2 0 -10 -8 -17
-17z"/>
<path d="M2440 3119 c0 -5 -4 -7 -10 -4 -5 3 -10 -1 -10 -9 0 -9 -9 -16 -20
-16 -10 0 -23 -6 -27 -14 -13 -22 -76 -56 -105 -56 -14 0 -28 -3 -30 -7 -4
-10 -53 -40 -98 -60 -19 -8 -37 -18 -40 -22 -15 -18 -133 -64 -151 -58 -3 1
-13 -4 -21 -10 -16 -13 -116 -53 -203 -80 -27 -8 -72 -23 -100 -33 -27 -10
-68 -23 -90 -30 -39 -11 -74 -24 -105 -40 -9 -4 -31 -11 -50 -15 -48 -11 -69
-25 -86 -60 -23 -48 -91 -112 -193 -179 -29 -19 -79 -57 -111 -85 -54 -48
-142 -114 -215 -161 -41 -26 -63 -42 -89 -61 -20 -15 -68 -40 -171 -89 -27
-13 -61 -32 -74 -42 -13 -10 -33 -18 -45 -18 -12 0 -33 -8 -46 -17 -14 -10
-38 -19 -55 -20 -42 -2 -84 -20 -91 -37 -3 -9 4 -29 15 -45 23 -31 27 -51 11
-51 -5 0 -7 -7 -4 -15 5 -11 -3 -17 -25 -21 -17 -4 -34 -10 -36 -14 -3 -5 -26
-18 -53 -31 -26 -12 -49 -25 -52 -28 -3 -3 -11 -6 -17 -7 -45 -4 -43 9 -43
-234 0 -126 4 -230 9 -230 5 0 11 -8 15 -18 3 -9 9 -22 12 -29 3 -7 -2 -10
-15 -6 -20 5 -21 1 -21 -70 l0 -76 48 -6 c26 -4 54 -7 62 -8 15 -2 40 -21 40
-31 0 -2 -14 3 -32 11 -29 15 -34 15 -61 0 -16 -10 -35 -17 -43 -17 -21 0 -18
-57 3 -63 15 -4 15 -5 -2 -6 -17 -1 -18 -3 -5 -12 11 -8 12 -12 3 -16 -22 -8
-14 -28 20 -43 17 -8 32 -20 31 -25 -1 -6 8 -18 18 -28 20 -19 20 -18 14 5 -4
13 1 8 11 -12 10 -19 25 -41 33 -48 13 -11 13 -11 -1 -7 -8 3 -23 -3 -32 -13
-16 -17 -16 -21 -2 -32 8 -7 24 -10 35 -7 11 3 20 2 20 -3 0 -17 -52 -21 -69
-5 -10 8 -22 15 -27 15 -22 -1 41 -40 65 -40 14 0 35 -7 45 -15 10 -8 24 -12
30 -8 7 4 8 3 1 -5 -5 -5 -19 -12 -30 -15 -16 -4 -14 -5 6 -6 15 0 32 6 39 14
7 8 20 15 29 15 14 0 14 -2 1 -10 -11 -7 -5 -10 25 -10 66 -2 116 -9 129 -18
6 -5 37 -13 69 -16 54 -7 58 -6 66 16 12 32 6 38 -37 38 -20 1 -48 8 -62 16
-25 15 -25 15 10 9 51 -8 46 -8 157 -2 112 6 126 10 119 35 -3 10 -1 24 4 32
9 13 12 13 24 -2 7 -10 15 -16 18 -13 2 3 23 -4 46 -15 22 -11 49 -20 59 -20
19 0 203 210 332 379 86 113 173 256 242 398 63 131 95 212 180 457 72 203
143 358 210 457 20 31 84 114 141 185 57 71 168 212 245 314 78 102 162 205
187 230 46 44 55 60 36 60 -5 0 -10 -5 -10 -11z m-2313 -2431 c-3 -8 -6 -5 -6
6 -1 11 2 17 5 13 3 -3 4 -12 1 -19z"/>
<path d="M2278 2083 c7 -3 16 -2 19 1 4 3 -2 6 -13 5 -11 0 -14 -3 -6 -6z"/>
<path d="M65 750 c3 -5 8 -10 11 -10 2 0 4 5 4 10 0 6 -5 10 -11 10 -5 0 -7
-4 -4 -10z"/>
<path d="M80 709 c0 -5 5 -7 10 -4 6 3 10 8 10 11 0 2 -4 4 -10 4 -5 0 -10 -5
-10 -11z"/>
<path d="M1470 635 c-11 -13 -10 -14 4 -9 9 3 16 10 16 15 0 13 -6 11 -20 -6z"/>
<path d="M2377 577 c-37 -164 -37 -167 -52 -347 -4 -47 -25 -191 -31 -212 -5
-17 14 -18 305 -18 171 0 311 2 311 4 0 24 -113 225 -147 264 -13 14 -23 28
-23 31 0 4 -13 15 -30 24 -16 10 -33 29 -36 43 -3 13 -10 24 -14 24 -4 0 -11
11 -14 25 -4 14 -10 23 -15 21 -11 -7 -74 23 -84 41 -4 7 -14 13 -21 13 -21 0
-66 24 -66 36 0 13 -51 50 -63 46 -5 -1 -6 2 -3 7 4 5 2 12 -3 15 -5 3 -11 -4
-14 -17z"/>
<path d="M224 568 c-3 -4 22 -6 55 -5 32 1 57 4 54 7 -7 8 -104 6 -109 -2z"/>
<path d="M408 523 c6 -2 18 -2 25 0 6 3 1 5 -13 5 -14 0 -19 -2 -12 -5z"/>
<path d="M390 500 c0 -6 7 -10 15 -10 8 0 15 2 15 4 0 2 -7 6 -15 10 -8 3 -15
1 -15 -4z"/>
<path d="M2277 453 c-10 -9 -9 -23 1 -23 5 0 9 7 9 15 0 17 -1 18 -10 8z"/>
<path d="M64 179 c-14 -16 -15 -23 -6 -26 25 -9 11 -23 -24 -23 -21 0 -33 -4
-29 -10 7 -11 54 -3 69 11 6 5 18 9 27 9 10 0 20 4 23 9 3 4 -7 6 -22 5 l-27
-4 30 15 30 16 -29 -6 c-23 -5 -27 -3 -23 9 8 21 4 20 -19 -5z"/>
<path d="M20 163 c0 -13 5 -23 10 -23 13 0 13 11 0 30 -8 12 -10 11 -10 -7z"/>
<path d="M110 120 c-9 -6 -10 -10 -3 -10 6 0 15 5 18 10 8 12 4 12 -15 0z"/>
<path d="M43 95 c-9 -10 -6 -12 13 -12 13 0 24 4 24 9 0 5 -4 7 -9 4 -5 -4
-11 -2 -13 3 -1 5 -8 3 -15 -4z"/>
<path d="M1 84 c0 -11 3 -14 6 -6 3 7 2 16 -1 19 -3 4 -6 -2 -5 -13z"/>
<path d="M30 54 c0 -16 -16 -19 -23 -4 -3 6 -4 5 -3 -2 4 -16 46 -12 63 5 10
9 7 12 -12 13 -15 1 -25 -4 -25 -12z"/>
<path d="M67 33 c-11 -10 -8 -20 7 -26 10 -4 12 0 9 14 -6 21 -7 22 -16 12z"/>
<path d="M2190 15 c-11 -13 -8 -15 15 -15 23 0 26 2 15 15 -7 8 -14 15 -15 15
-1 0 -8 -7 -15 -15z"/>
<path d="M0 10 c0 -13 17 -13 25 0 3 6 -1 10 -9 10 -9 0 -16 -4 -16 -10z"/>
</g>
</svg>
